<svg width="600" height="520" viewBox="0 0 600 520" fill="none" xmlns="http://www.w3.org/2000/svg">
  <rect width="600" height="520" rx="28" fill="#071B2D"/>
  <rect x="24" y="24" width="552" height="472" rx="24" fill="url(#paint0_linear)" stroke="#2A4F71"/>
  <rect x="52" y="52" width="214" height="170" rx="18" fill="#0A2A44" stroke="#315A80"/>
  <path d="M77 158C101.333 130.667 125.667 130.667 150 158C174.333 185.333 198.667 185.333 223 158C247.333 130.667 271.667 130.667 296 158C320.333 185.333 344.667 185.333 369 158" stroke="#5DD0FF" stroke-width="5" stroke-linecap="round"/>
  <path d="M79 85H199" stroke="#8EDCFF" stroke-width="2"/>
  <path d="M79 106H173" stroke="#284E71" stroke-width="2"/>
  <path d="M79 127H224" stroke="#284E71" stroke-width="2"/>
  <rect x="292" y="52" width="256" height="170" rx="18" fill="#09253D" stroke="#315A80"/>
  <circle cx="361" cy="136" r="46" fill="#061A2C" stroke="#5DD0FF" stroke-width="3"/>
  <path d="M361 103V136L383 149" stroke="#5DD0FF" stroke-width="5" stroke-linecap="round" stroke-linejoin="round"/>
  <path d="M438 98H515" stroke="#89DCFF" stroke-width="2"/>
  <path d="M438 120H526" stroke="#284E71" stroke-width="2"/>
  <path d="M438 142H496" stroke="#284E71" stroke-width="2"/>
  <path d="M438 164H520" stroke="#284E71" stroke-width="2"/>
  <rect x="52" y="252" width="496" height="96" rx="18" fill="#09253D" stroke="#315A80"/>
  <path d="M79 300H235" stroke="#274E71" stroke-width="14" stroke-linecap="round"/>
  <path d="M79 300H173" stroke="#5DD0FF" stroke-width="14" stroke-linecap="round"/>
  <path d="M261 300H417" stroke="#274E71" stroke-width="14" stroke-linecap="round"/>
  <path d="M261 300H380" stroke="#5DD0FF" stroke-width="14" stroke-linecap="round"/>
  <path d="M443 300H521" stroke="#274E71" stroke-width="14" stroke-linecap="round"/>
  <path d="M443 300H489" stroke="#5DD0FF" stroke-width="14" stroke-linecap="round"/>
  <rect x="52" y="378" width="496" height="90" rx="18" fill="#0A2A44" stroke="#315A80"/>
  <circle cx="120" cy="423" r="24" fill="#061A2C" stroke="#5DD0FF" stroke-width="3"/>
  <circle cx="220" cy="423" r="24" fill="#061A2C" stroke="#5DD0FF" stroke-width="3"/>
  <circle cx="320" cy="423" r="24" fill="#061A2C" stroke="#5DD0FF" stroke-width="3"/>
  <circle cx="420" cy="423" r="24" fill="#061A2C" stroke="#5DD0FF" stroke-width="3"/>
  <path d="M144 423H196" stroke="#5DD0FF" stroke-width="3" stroke-dasharray="6 6"/>
  <path d="M244 423H296" stroke="#5DD0FF" stroke-width="3" stroke-dasharray="6 6"/>
  <path d="M344 423H396" stroke="#5DD0FF" stroke-width="3" stroke-dasharray="6 6"/>
  <path d="M444 423H496" stroke="#5DD0FF" stroke-width="3" stroke-dasharray="6 6"/>
  <defs>
    <linearGradient id="paint0_linear" x1="300" y1="24" x2="300" y2="496" gradientUnits="userSpaceOnUse">
      <stop stop-color="#0C2B46"/>
      <stop offset="1" stop-color="#061523"/>
    </linearGradient>
  </defs>
</svg>
