<svg width="64" height="64" viewBox="0 0 64 64" fill="none" xmlns="http://www.w3.org/2000/svg">
  <path d="M54.238 9.677A31.415 31.415 0 0 0 31.89.5C14.613.5.536 14.58.53 31.857A31.25 31.25 0 0 0 4.76 47.53L.5 63.5l16.34-4.18a31.274 31.274 0 0 0 15.04 3.84h.013c17.275 0 31.354-14.08 31.36-31.356A31.334 31.334 0 0 0 54.238 9.677Zm-22.35 48.18h-.01a26.08 26.08 0 0 1-13.283-3.638l-.953-.565-9.698 2.48 2.588-9.46-.62-.972a26.048 26.048 0 0 1-4.023-13.85C5.895 17.51 17.55 5.854 31.897 5.854c6.96.003 13.5 2.717 18.424 7.642a25.863 25.863 0 0 1 7.633 18.415c-.006 14.345-11.66 25.946-26.066 25.946Z" fill="#072313"/>
  <path d="M46.63 38.366c-.8-.4-4.735-2.334-5.468-2.6-.733-.266-1.266-.4-1.8.4-.534.8-2.067 2.6-2.533 3.133-.467.534-.933.6-1.733.2-.8-.4-3.376-1.243-6.43-3.96-2.377-2.117-3.98-4.73-4.446-5.53-.467-.8-.05-1.234.35-1.633.36-.36.8-.934 1.2-1.4.4-.467.533-.8.8-1.334.267-.533.133-1-.067-1.4-.2-.4-1.8-4.333-2.466-5.933-.648-1.557-1.307-1.346-1.8-1.37l-1.533-.028c-.533 0-1.4.2-2.133 1-.733.8-2.8 2.734-2.8 6.667 0 3.933 2.867 7.733 3.267 8.267.4.533 5.63 8.598 13.64 12.053 1.905.823 3.39 1.314 4.55 1.682 1.913.608 3.654.523 5.03.317 1.535-.229 4.734-1.934 5.4-3.8.667-1.867.667-3.467.467-3.8-.2-.334-.733-.534-1.533-.934Z" fill="#072313"/>
</svg>
